<?xml version="1.0" encoding="iso-8859-1"?>
<!-- Generator: Adobe Illustrator 19.0.0, SVG Export Plug-In . SVG Version: 6.00 Build 0)  -->
<svg version="1.1" id="Layer_1" xmlns="http://www.w3.org/2000/svg" xmlns:xlink="http://www.w3.org/1999/xlink" x="0px" y="0px"
	 viewBox="-1014 -26.098 570 353.098" style="enable-background:new -1014 -26.098 570 353.098;" xml:space="preserve">
<path style="fill:#1C3663;" d="M-444,296.733c0,16.716-15.085,30.267-33.693,30.267h-502.614
	c-18.608,0.001-33.693-13.552-33.693-30.267V4.168c0-16.715,15.085-30.266,33.693-30.266h502.613
	c18.609,0,33.693,13.551,33.693,30.266L-444,296.733L-444,296.733z"/>
<g>
	<g>
		<path style="fill:#FFFFFF;" d="M-870.489,110.462c-1.598-3.294-4.211-5.958-7.407-7.989c-3.394-2.08-7.308-3.53-11.853-4.347
			c-4.595-0.83-9.871-1.214-16.064-1.264h-28.4c-2.948,0.049-5.858,2.328-6.527,5.177l-19.111,83.268
			c-0.682,2.799,1.152,5.177,4.112,5.177h13.587c2.96,0,5.908-2.279,6.54-5.177l4.694-20.226c0.62-2.812,3.53-5.128,6.478-5.128
			h3.926c16.634-0.05,29.503-3.443,38.742-10.255c9.339-6.824,13.897-15.829,13.897-26.951
			C-867.876,117.857-868.656,113.745-870.489,110.462L-870.489,110.462z M-899.819,137.649c-4.112,3.047-9.822,4.546-17.216,4.546
			h-3.295c-2.948,0-4.793-2.316-4.162-5.178l4.112-17.699c0.582-2.812,3.53-5.177,6.49-5.177h4.447c5.227,0,9.19,0.867,11.853,2.651
			c2.613,1.697,3.914,4.458,3.914,8.088C-893.625,130.391-895.744,134.651-899.819,137.649L-899.819,137.649z M-712.82,126.811
			l-54.187,91.678c-1.746,2.861-5.611,5.128-8.509,5.128l-14.132,0.05c-2.898,0-3.877-2.316-2.081-5.178l12.052-20.994
			c0,0,0.966-1.214,0.087-8.075c-1.833-12.386-11.073-65.025-11.073-65.025c-0.681-2.861,1.115-5.227,4.063-5.227h12.187
			c3.728,0,6.725,2.465,7.407,5.326l6.044,36.525l2.279,0.05c1.882-3.394,21.377-36.822,21.377-36.822
			c1.846-2.811,5.623-5.177,8.571-5.177c0,0,13.067,0.05,16.299,0C-707.593,118.971-712.82,126.811-712.82,126.811L-712.82,126.811z
			 M-623.458,110.797c-1.697-3.332-4.211-5.995-7.456-8.076c-3.332-2.031-7.258-3.493-11.853-4.31
			c-4.496-0.818-9.871-1.251-16.014-1.251h-28.45c-2.948,0.037-5.796,2.366-6.477,5.165l-19.111,83.318
			c-0.681,2.811,1.214,5.177,4.112,5.177l13.6-0.049c2.898,0.049,5.895-2.316,6.527-5.128l4.645-20.226
			c0.681-2.799,3.579-5.178,6.527-5.178h3.877c16.646,0,29.564-3.431,38.903-10.206c9.141-6.874,13.785-15.866,13.785-27
			C-620.894,118.154-621.724,114.042-623.458,110.797L-623.458,110.797z M-652.775,138.032c-4.112,2.96-9.822,4.459-17.179,4.459
			h-3.381c-2.91,0-4.843-2.378-4.162-5.177l4.112-17.662c0.62-2.811,3.58-5.177,6.528-5.177h4.397c5.227,0,9.153,0.867,11.853,2.613
			c2.613,1.747,3.926,4.496,3.975,8.125C-646.632,130.725-648.712,134.985-652.775,138.032L-652.775,138.032z M-804.895,122.365
			c-5.128-2.911-13.253-4.31-24.289-4.31c-5.511,0-10.973,0.384-16.497,1.263c-4.063,0.619-4.447,0.718-6.961,1.301
			c-5.177,1.115-5.995,6.292-5.995,6.292l-1.648,6.824c-0.916,4.348,1.598,4.199,2.614,3.815c2.266-0.669,3.53-1.35,8.125-2.366
			c4.446-1.015,9.091-1.746,12.77-1.696c5.425,0,9.586,0.533,12.386,1.746c2.712,1.152,4.063,3.195,4.063,6.143l-0.235,1.932
			l-1.932,1.214c-7.741,0.483-13.315,1.202-20.09,2.18c-6.626,0.917-12.423,2.564-17.216,4.731
			c-5.177,2.279-9.054,5.376-11.704,9.24c-2.613,3.926-3.926,8.67-3.926,14.231c0,5.276,1.883,9.574,5.561,12.918
			c3.679,3.282,8.522,4.88,14.33,4.88c3.666,0,6.527-0.285,8.509-0.768l6.626-2.279l5.561-3.096l5.14-3.381l0.037,0.099
			l-0.483,2.168l-0.05,0.099c-0.52,2.662,1.065,4.843,3.629,5.078l0.05,0.099h12.683l0.136-0.099
			c2.712-0.334,5.277-2.514,5.858-5.078l9.921-42.966l0.532-3.48l0.235-3.282C-797.104,129.759-799.755,125.263-804.895,122.365
			L-804.895,122.365z M-826.805,170.644l-2.13,2.811l-5.376,2.749c-2.514,1.016-4.88,1.549-7.109,1.549
			c-3.332,0-5.945-0.483-7.741-1.499l-2.613-5.078c0-2.762,0.632-4.93,1.982-6.626l5.759-3.914c2.465-0.83,5.524-1.548,9.004-2.044
			c3.097-0.384,9.24-1.102,10.058-1.102l0.929,1.635C-824.242,160.054-825.987,167.35-826.805,170.644L-826.805,170.644z
			 M-557.802,122.414c-5.177-2.861-13.265-4.31-24.288-4.31c-5.475,0-10.986,0.384-16.448,1.301
			c-4.112,0.582-4.508,0.73-7.023,1.263c-5.177,1.115-5.945,6.292-5.945,6.292l-1.697,6.824c-0.917,4.348,1.549,4.149,2.712,3.815
			c2.217-0.681,3.481-1.3,8.026-2.365c4.409-1.016,9.103-1.746,12.819-1.746c5.376,0,9.537,0.632,12.336,1.796
			c2.762,1.152,4.112,3.232,4.112,6.143l-0.235,1.932l-1.932,1.214c-7.791,0.483-13.401,1.201-20.078,2.167
			c-6.589,0.929-12.435,2.526-17.278,4.744c-5.177,2.278-9.041,5.375-11.704,9.239c-2.613,3.926-3.926,8.67-3.926,14.182
			c0,5.276,1.895,9.624,5.574,12.968c3.716,3.232,8.509,4.88,14.318,4.88c3.679,0,6.528-0.235,8.559-0.768l6.577-2.229l5.623-3.096
			l5.078-3.431l0.099,0.099l-0.483,2.167l-0.049,0.05l0.049,0.05c-0.632,2.663,0.966,4.843,3.617,5.078v0.049h12.633l0.198-0.049
			c2.65-0.335,5.227-2.514,5.796-5.128l9.921-42.867l0.532-3.53l0.297-3.282C-550.011,129.809-552.625,125.313-557.802,122.414
			L-557.802,122.414z M-579.675,170.694l-2.229,2.848l-5.264,2.762c-2.527,0.966-4.942,1.498-7.122,1.498
			c-3.431,0-5.995-0.483-7.741-1.449l-2.651-5.078c0-2.811,0.669-4.979,1.982-6.676c1.3-1.598,3.282-2.948,5.797-3.926
			c2.427-0.818,5.474-1.499,8.954-1.982c3.096-0.434,9.24-1.115,10.02-1.152l0.966,1.684
			C-577.111,160.141-578.857,167.399-579.675,170.694L-579.675,170.694z M-506.761,103.006l-18.195,82.538l-0.681,1.016
			c-1.065,2.279-3.332,4.161-5.846,4.161h-12.634l-0.235-0.285c-2.427-0.347-3.975-2.279-3.393-4.843l-0.05-0.05l0.533-2.366
			l17.08-77.41l0.582-2.712l0.682-1.065c1.115-2.267,3.381-4.112,5.846-4.112h12.2C-507.925,97.829-506.179,100.157-506.761,103.006
			L-506.761,103.006z M-461.578,93.184"/>
	</g>
</g>
</svg>
